<mxfile host="app.diagrams.net" agent="Mozilla/5.0 (Windows NT 10.0; Win64; x64) AppleWebKit/537.36 (KHTML, like Gecko) Chrome/141.0.0.0 Safari/537.36 Edg/141.0.0.0" version="28.2.7">
  <diagram name="第 1 页" id="OZ2xTprzYjHewQnaejvR">
    <mxGraphModel dx="1477" dy="814" grid="1" gridSize="10" guides="1" tooltips="1" connect="1" arrows="1" fold="1" page="1" pageScale="1" pageWidth="827" pageHeight="1169" math="0" shadow="0">
      <root>
        <mxCell id="0" />
        <mxCell id="1" parent="0" />
        <mxCell id="o6JV0O_aCrjebnOcIQm1-31" style="edgeStyle=orthogonalEdgeStyle;rounded=0;orthogonalLoop=1;jettySize=auto;html=1;entryX=0.5;entryY=1;entryDx=0;entryDy=0;strokeWidth=4;" edge="1" parent="1" source="o6JV0O_aCrjebnOcIQm1-29" target="o6JV0O_aCrjebnOcIQm1-27">
          <mxGeometry relative="1" as="geometry" />
        </mxCell>
        <mxCell id="o6JV0O_aCrjebnOcIQm1-29" value="" style="rounded=0;whiteSpace=wrap;html=1;dashed=1;strokeColor=#000000;fillStyle=hatch;strokeWidth=2;" vertex="1" parent="1">
          <mxGeometry x="160" y="810" width="1100" height="140" as="geometry" />
        </mxCell>
        <mxCell id="o6JV0O_aCrjebnOcIQm1-32" style="edgeStyle=orthogonalEdgeStyle;rounded=0;orthogonalLoop=1;jettySize=auto;html=1;entryX=0.5;entryY=1;entryDx=0;entryDy=0;strokeWidth=4;" edge="1" parent="1" source="o6JV0O_aCrjebnOcIQm1-27" target="o6JV0O_aCrjebnOcIQm1-25">
          <mxGeometry relative="1" as="geometry" />
        </mxCell>
        <mxCell id="o6JV0O_aCrjebnOcIQm1-27" value="" style="rounded=0;whiteSpace=wrap;html=1;dashed=1;strokeColor=#000000;fillStyle=hatch;strokeWidth=2;" vertex="1" parent="1">
          <mxGeometry x="160" y="671" width="1100" height="110" as="geometry" />
        </mxCell>
        <mxCell id="o6JV0O_aCrjebnOcIQm1-33" style="edgeStyle=orthogonalEdgeStyle;rounded=0;orthogonalLoop=1;jettySize=auto;html=1;entryX=0.5;entryY=1;entryDx=0;entryDy=0;strokeWidth=4;" edge="1" parent="1" source="o6JV0O_aCrjebnOcIQm1-25" target="o6JV0O_aCrjebnOcIQm1-24">
          <mxGeometry relative="1" as="geometry" />
        </mxCell>
        <mxCell id="o6JV0O_aCrjebnOcIQm1-25" value="" style="rounded=0;whiteSpace=wrap;html=1;dashed=1;strokeColor=#000000;fillStyle=hatch;strokeWidth=2;" vertex="1" parent="1">
          <mxGeometry x="160" y="531" width="1100" height="110" as="geometry" />
        </mxCell>
        <mxCell id="o6JV0O_aCrjebnOcIQm1-24" value="" style="rounded=0;whiteSpace=wrap;html=1;dashed=1;strokeColor=#000000;fillStyle=hatch;strokeWidth=2;" vertex="1" parent="1">
          <mxGeometry x="160" y="390" width="1100" height="110" as="geometry" />
        </mxCell>
        <mxCell id="o6JV0O_aCrjebnOcIQm1-2" value="&lt;div style=&quot;&quot;&gt;&lt;span style=&quot;background-color: transparent; font-size: 33px;&quot;&gt;&lt;font face=&quot;SimSun&quot;&gt;&lt;b&gt;案例检索&lt;/b&gt;&lt;/font&gt;&lt;/span&gt;&lt;/div&gt;&lt;div style=&quot;&quot;&gt;&lt;span style=&quot;background-color: transparent; font-size: 33px;&quot;&gt;&lt;font face=&quot;SimSun&quot;&gt;&lt;b&gt;与预览&lt;/b&gt;&lt;/font&gt;&lt;/span&gt;&lt;/div&gt;" style="rounded=1;whiteSpace=wrap;html=1;fillStyle=auto;fillColor=#f9f7ed;strokeColor=#36393d;" vertex="1" parent="1">
          <mxGeometry x="299.78" y="400" width="210.22" height="92" as="geometry" />
        </mxCell>
        <mxCell id="o6JV0O_aCrjebnOcIQm1-3" value="&lt;div style=&quot;&quot;&gt;&lt;span style=&quot;background-color: transparent; font-size: 33px;&quot;&gt;&lt;font face=&quot;SimSun&quot;&gt;&lt;b&gt;个性化推荐&lt;/b&gt;&lt;/font&gt;&lt;/span&gt;&lt;/div&gt;" style="rounded=1;whiteSpace=wrap;html=1;fillStyle=auto;fillColor=#f9f7ed;strokeColor=#36393d;" vertex="1" parent="1">
          <mxGeometry x="550.22" y="402" width="199.56" height="90" as="geometry" />
        </mxCell>
        <mxCell id="o6JV0O_aCrjebnOcIQm1-4" value="&lt;div style=&quot;&quot;&gt;&lt;span style=&quot;background-color: transparent; font-size: 33px;&quot;&gt;&lt;font face=&quot;SimSun&quot;&gt;&lt;b&gt;用户评分&lt;/b&gt;&lt;/font&gt;&lt;/span&gt;&lt;/div&gt;&lt;div style=&quot;&quot;&gt;&lt;span style=&quot;background-color: transparent; font-size: 33px;&quot;&gt;&lt;font face=&quot;SimSun&quot;&gt;&lt;b&gt;反馈&lt;/b&gt;&lt;/font&gt;&lt;/span&gt;&lt;/div&gt;" style="rounded=1;whiteSpace=wrap;html=1;fillStyle=auto;fillColor=#f9f7ed;strokeColor=#36393d;" vertex="1" parent="1">
          <mxGeometry x="790" y="402" width="210" height="90" as="geometry" />
        </mxCell>
        <mxCell id="o6JV0O_aCrjebnOcIQm1-5" value="&lt;div style=&quot;&quot;&gt;&lt;span style=&quot;background-color: transparent; font-size: 33px;&quot;&gt;&lt;font face=&quot;SimSun&quot;&gt;&lt;b&gt;数据统计&lt;/b&gt;&lt;/font&gt;&lt;/span&gt;&lt;/div&gt;&lt;div style=&quot;&quot;&gt;&lt;span style=&quot;background-color: transparent; font-size: 33px;&quot;&gt;&lt;font face=&quot;SimSun&quot;&gt;&lt;b&gt;分析&lt;/b&gt;&lt;/font&gt;&lt;/span&gt;&lt;/div&gt;" style="rounded=1;whiteSpace=wrap;html=1;fillStyle=auto;fillColor=#f9f7ed;strokeColor=#36393d;" vertex="1" parent="1">
          <mxGeometry x="1040" y="402" width="190" height="90" as="geometry" />
        </mxCell>
        <mxCell id="o6JV0O_aCrjebnOcIQm1-6" value="&lt;div style=&quot;&quot;&gt;&lt;font face=&quot;SimSun&quot;&gt;&lt;span style=&quot;font-size: 33px;&quot;&gt;&lt;b&gt;素材采集与&lt;/b&gt;&lt;/span&gt;&lt;/font&gt;&lt;/div&gt;&lt;div style=&quot;&quot;&gt;&lt;font face=&quot;SimSun&quot;&gt;&lt;span style=&quot;font-size: 33px;&quot;&gt;&lt;b&gt;智能过滤&lt;/b&gt;&lt;/span&gt;&lt;/font&gt;&lt;/div&gt;" style="rounded=1;whiteSpace=wrap;html=1;fillStyle=auto;fillColor=#f9f7ed;strokeColor=#36393d;" vertex="1" parent="1">
          <mxGeometry x="299.78" y="540" width="210.22" height="92" as="geometry" />
        </mxCell>
        <mxCell id="o6JV0O_aCrjebnOcIQm1-7" value="&lt;div style=&quot;&quot;&gt;&lt;font face=&quot;SimSun&quot;&gt;&lt;span style=&quot;font-size: 33px;&quot;&gt;&lt;b&gt;案例生成&lt;/b&gt;&lt;/span&gt;&lt;/font&gt;&lt;/div&gt;&lt;div style=&quot;&quot;&gt;&lt;font face=&quot;SimSun&quot;&gt;&lt;span style=&quot;font-size: 33px;&quot;&gt;&lt;b&gt;（提示词模板）&lt;/b&gt;&lt;/span&gt;&lt;/font&gt;&lt;/div&gt;" style="rounded=1;whiteSpace=wrap;html=1;fillStyle=auto;fillColor=#f9f7ed;strokeColor=#36393d;" vertex="1" parent="1">
          <mxGeometry x="530" y="542" width="240" height="92" as="geometry" />
        </mxCell>
        <mxCell id="o6JV0O_aCrjebnOcIQm1-8" value="&lt;div style=&quot;&quot;&gt;&lt;font face=&quot;SimSun&quot;&gt;&lt;span style=&quot;font-size: 33px;&quot;&gt;&lt;b&gt;智能匹配&lt;/b&gt;&lt;/span&gt;&lt;/font&gt;&lt;/div&gt;&lt;div style=&quot;&quot;&gt;&lt;font face=&quot;SimSun&quot;&gt;&lt;span style=&quot;font-size: 33px;&quot;&gt;&lt;b&gt;与推荐&lt;/b&gt;&lt;/span&gt;&lt;/font&gt;&lt;/div&gt;" style="rounded=1;whiteSpace=wrap;html=1;fillStyle=auto;fillColor=#f9f7ed;strokeColor=#36393d;" vertex="1" parent="1">
          <mxGeometry x="800" y="542" width="210" height="92" as="geometry" />
        </mxCell>
        <mxCell id="o6JV0O_aCrjebnOcIQm1-9" value="&lt;div style=&quot;&quot;&gt;&lt;font face=&quot;SimSun&quot;&gt;&lt;span style=&quot;font-size: 33px;&quot;&gt;&lt;b&gt;三级审核&lt;/b&gt;&lt;/span&gt;&lt;/font&gt;&lt;/div&gt;&lt;div style=&quot;&quot;&gt;&lt;font face=&quot;SimSun&quot;&gt;&lt;span style=&quot;font-size: 33px;&quot;&gt;&lt;b&gt;质量把关&lt;/b&gt;&lt;/span&gt;&lt;/font&gt;&lt;/div&gt;" style="rounded=1;whiteSpace=wrap;html=1;fillStyle=auto;fillColor=#f9f7ed;strokeColor=#36393d;" vertex="1" parent="1">
          <mxGeometry x="1040" y="540" width="190" height="92" as="geometry" />
        </mxCell>
        <mxCell id="o6JV0O_aCrjebnOcIQm1-10" value="&lt;div style=&quot;&quot;&gt;&lt;font face=&quot;SimSun&quot;&gt;&lt;span style=&quot;font-size: 33px;&quot;&gt;&lt;b&gt;素材库&lt;/b&gt;&lt;/span&gt;&lt;/font&gt;&lt;/div&gt;&lt;div style=&quot;&quot;&gt;&lt;font style=&quot;font-size: 30px;&quot; face=&quot;SimSun&quot;&gt;&lt;b style=&quot;&quot;&gt;（500条）&lt;/b&gt;&lt;/font&gt;&lt;/div&gt;" style="rounded=1;whiteSpace=wrap;html=1;fillStyle=auto;fillColor=#f9f7ed;strokeColor=#36393d;" vertex="1" parent="1">
          <mxGeometry x="299.78" y="680" width="210.22" height="92" as="geometry" />
        </mxCell>
        <mxCell id="o6JV0O_aCrjebnOcIQm1-12" value="&lt;div style=&quot;&quot;&gt;&lt;font face=&quot;SimSun&quot;&gt;&lt;span style=&quot;font-size: 33px;&quot;&gt;&lt;b&gt;五层关联&lt;/b&gt;&lt;/span&gt;&lt;/font&gt;&lt;/div&gt;&lt;div style=&quot;&quot;&gt;&lt;font face=&quot;SimSun&quot;&gt;&lt;span style=&quot;font-size: 33px;&quot;&gt;&lt;b&gt;知识图谱&lt;/b&gt;&lt;/span&gt;&lt;/font&gt;&lt;/div&gt;" style="rounded=1;whiteSpace=wrap;html=1;fillStyle=auto;fillColor=#f9f7ed;strokeColor=#36393d;" vertex="1" parent="1">
          <mxGeometry x="800" y="682" width="210" height="92" as="geometry" />
        </mxCell>
        <mxCell id="o6JV0O_aCrjebnOcIQm1-13" value="&lt;div style=&quot;&quot;&gt;&lt;font face=&quot;SimSun&quot;&gt;&lt;span style=&quot;font-size: 33px;&quot;&gt;&lt;b&gt;用户行为&lt;/b&gt;&lt;/span&gt;&lt;/font&gt;&lt;/div&gt;&lt;div style=&quot;&quot;&gt;&lt;font face=&quot;SimSun&quot;&gt;&lt;span style=&quot;font-size: 33px;&quot;&gt;&lt;b&gt;数据&lt;/b&gt;&lt;/span&gt;&lt;/font&gt;&lt;/div&gt;" style="rounded=1;whiteSpace=wrap;html=1;fillStyle=auto;fillColor=#f9f7ed;strokeColor=#36393d;" vertex="1" parent="1">
          <mxGeometry x="1040" y="680" width="190" height="92" as="geometry" />
        </mxCell>
        <mxCell id="o6JV0O_aCrjebnOcIQm1-14" value="&lt;div style=&quot;&quot;&gt;&lt;font face=&quot;SimSun&quot;&gt;&lt;span style=&quot;font-size: 33px;&quot;&gt;&lt;b&gt;案例库&lt;/b&gt;&lt;/span&gt;&lt;/font&gt;&lt;/div&gt;&lt;div style=&quot;&quot;&gt;&lt;font style=&quot;font-size: 30px;&quot; face=&quot;SimSun&quot;&gt;&lt;b style=&quot;&quot;&gt;（50个）&lt;/b&gt;&lt;/font&gt;&lt;/div&gt;" style="rounded=1;whiteSpace=wrap;html=1;fillStyle=auto;fillColor=#f9f7ed;strokeColor=#36393d;" vertex="1" parent="1">
          <mxGeometry x="550.22" y="682" width="199.56" height="92" as="geometry" />
        </mxCell>
        <mxCell id="o6JV0O_aCrjebnOcIQm1-15" value="&lt;div style=&quot;&quot;&gt;&lt;font face=&quot;SimSun&quot;&gt;&lt;span style=&quot;font-size: 33px;&quot;&gt;&lt;b&gt;大语言模型&lt;/b&gt;&lt;/span&gt;&lt;/font&gt;&lt;/div&gt;&lt;div style=&quot;&quot;&gt;&lt;font style=&quot;font-size: 30px;&quot; face=&quot;SimSun&quot;&gt;&lt;b style=&quot;&quot;&gt;（ChatGPT、文心一言）&lt;/b&gt;&lt;/font&gt;&lt;/div&gt;" style="rounded=1;whiteSpace=wrap;html=1;fillStyle=auto;fillColor=#f9f7ed;strokeColor=#36393d;" vertex="1" parent="1">
          <mxGeometry x="289.78" y="820" width="240.22" height="120" as="geometry" />
        </mxCell>
        <mxCell id="o6JV0O_aCrjebnOcIQm1-16" value="&lt;div style=&quot;&quot;&gt;&lt;font face=&quot;SimSun&quot;&gt;&lt;span style=&quot;font-size: 33px;&quot;&gt;&lt;b&gt;知识图谱&lt;/b&gt;&lt;/span&gt;&lt;/font&gt;&lt;/div&gt;&lt;div style=&quot;&quot;&gt;&lt;font face=&quot;SimSun&quot;&gt;&lt;span style=&quot;font-size: 33px;&quot;&gt;&lt;b&gt;构建技术&lt;/b&gt;&lt;/span&gt;&lt;/font&gt;&lt;/div&gt;" style="rounded=1;whiteSpace=wrap;html=1;fillStyle=auto;fillColor=#f9f7ed;strokeColor=#36393d;" vertex="1" parent="1">
          <mxGeometry x="800" y="836" width="210.44" height="92" as="geometry" />
        </mxCell>
        <mxCell id="o6JV0O_aCrjebnOcIQm1-17" value="&lt;div style=&quot;&quot;&gt;&lt;font face=&quot;SimSun&quot;&gt;&lt;span style=&quot;font-size: 33px;&quot;&gt;&lt;b&gt;数据存储&lt;/b&gt;&lt;/span&gt;&lt;/font&gt;&lt;/div&gt;&lt;div style=&quot;&quot;&gt;&lt;font face=&quot;SimSun&quot;&gt;&lt;span style=&quot;font-size: 33px;&quot;&gt;&lt;b&gt;与管理&lt;/b&gt;&lt;/span&gt;&lt;/font&gt;&lt;/div&gt;" style="rounded=1;whiteSpace=wrap;html=1;fillStyle=auto;fillColor=#f9f7ed;strokeColor=#36393d;" vertex="1" parent="1">
          <mxGeometry x="1040" y="834" width="190" height="92" as="geometry" />
        </mxCell>
        <mxCell id="o6JV0O_aCrjebnOcIQm1-18" value="&lt;div style=&quot;&quot;&gt;&lt;font face=&quot;SimSun&quot;&gt;&lt;span style=&quot;font-size: 33px;&quot;&gt;&lt;b&gt;网络爬虫&lt;/b&gt;&lt;/span&gt;&lt;/font&gt;&lt;/div&gt;&lt;div style=&quot;&quot;&gt;&lt;font face=&quot;SimSun&quot;&gt;&lt;span style=&quot;font-size: 33px;&quot;&gt;&lt;b&gt;工具&lt;/b&gt;&lt;/span&gt;&lt;/font&gt;&lt;/div&gt;" style="rounded=1;whiteSpace=wrap;html=1;fillStyle=auto;fillColor=#f9f7ed;strokeColor=#36393d;" vertex="1" parent="1">
          <mxGeometry x="550.22" y="836" width="199.78" height="92" as="geometry" />
        </mxCell>
        <mxCell id="o6JV0O_aCrjebnOcIQm1-22" value="&lt;font style=&quot;font-size: 30px;&quot;&gt;应用层&lt;/font&gt;" style="shape=note;whiteSpace=wrap;html=1;backgroundOutline=1;darkOpacity=0.05;fillColor=#fff2cc;strokeColor=#d6b656;fillStyle=solid;direction=west;gradientDirection=north;shadow=0;size=20;pointerEvents=1;opacity=0;" vertex="1" parent="1">
          <mxGeometry x="169.78" y="417" width="120" height="60" as="geometry" />
        </mxCell>
        <mxCell id="o6JV0O_aCrjebnOcIQm1-26" value="&lt;font style=&quot;font-size: 30px;&quot;&gt;服务层&lt;/font&gt;" style="shape=note;whiteSpace=wrap;html=1;backgroundOutline=1;darkOpacity=0.05;fillColor=#fff2cc;strokeColor=#d6b656;fillStyle=solid;direction=west;gradientDirection=north;shadow=0;size=20;pointerEvents=1;opacity=0;" vertex="1" parent="1">
          <mxGeometry x="169.78" y="556" width="120" height="60" as="geometry" />
        </mxCell>
        <mxCell id="o6JV0O_aCrjebnOcIQm1-28" value="&lt;font style=&quot;font-size: 30px;&quot;&gt;数据层&lt;/font&gt;" style="shape=note;whiteSpace=wrap;html=1;backgroundOutline=1;darkOpacity=0.05;fillColor=#fff2cc;strokeColor=#d6b656;fillStyle=solid;direction=west;gradientDirection=north;shadow=0;size=20;pointerEvents=1;opacity=0;" vertex="1" parent="1">
          <mxGeometry x="169.77999999999997" y="696" width="120" height="60" as="geometry" />
        </mxCell>
        <mxCell id="o6JV0O_aCrjebnOcIQm1-30" value="&lt;font style=&quot;font-size: 30px;&quot;&gt;基础层&lt;/font&gt;" style="shape=note;whiteSpace=wrap;html=1;backgroundOutline=1;darkOpacity=0.05;fillColor=#fff2cc;strokeColor=#d6b656;fillStyle=solid;direction=west;gradientDirection=north;shadow=0;size=20;pointerEvents=1;opacity=0;" vertex="1" parent="1">
          <mxGeometry x="169.77999999999997" y="852" width="120" height="60" as="geometry" />
        </mxCell>
      </root>
    </mxGraphModel>
  </diagram>
</mxfile>
